<svg id="圖層_1" data-name="圖層 1" xmlns="http://www.w3.org/2000/svg" viewBox="0 0 110 110"><defs><style>.cls-1{fill:none;stroke:#000;stroke-miterlimit:10;stroke-width:9px;}</style></defs><title>未命名-1</title><path d="M61.65,85a14.83,14.83,0,0,1-.52-4,11,11,0,0,1,2.81-7.81,9.58,9.58,0,0,1,7.35-3,9.65,9.65,0,0,1,7.41,3,11.24,11.24,0,0,1,2.78,8A14.08,14.08,0,0,1,81,85h8.21a19.56,19.56,0,0,0,.38-3.88,17.42,17.42,0,0,0-5.28-12.87,18.71,18.71,0,0,0-25.94,0A17,17,0,0,0,53,80.84,20.66,20.66,0,0,0,53.46,85Z"/><line class="cls-1" x1="71.3" y1="85" x2="71.5" y2="36.5"/><line class="cls-1" x1="37.73" y1="84.19" x2="37.73" y2="60.69"/><path d="M55.88,47.35A17,17,0,0,1,50.57,60a17.79,17.79,0,0,1-12.94,5.21,17.91,17.91,0,0,1-13-5.24,17.46,17.46,0,0,1-5.27-12.87,17.34,17.34,0,0,1,5.31-12.9A18.11,18.11,0,0,1,37.77,29a17.39,17.39,0,0,1,12.9,5.27A17.74,17.74,0,0,1,55.88,47.35Zm-8.09-.14a11.54,11.54,0,0,0-2.74-8.12,9.65,9.65,0,0,0-7.42-3,9.67,9.67,0,0,0-7.42,3,11.29,11.29,0,0,0-2.77,8,11.28,11.28,0,0,0,2.77,8,9.68,9.68,0,0,0,7.42,3A9.59,9.59,0,0,0,45,55,11,11,0,0,0,47.79,47.21Z"/></svg>